<svg xmlns="http://www.w3.org/2000/svg" 
     viewBox="50 50 250 250" 
     width="100" 
     height="100" 
     preserveAspectRatio="xMidYMid meet">

<defs><clipPath id="faf28a4d76"><path d="M 143.542969 136 L 183 136 L 183 216 L 143.542969 216 Z M 143.542969 136 "/></clipPath><clipPath id="5161ffdf19"><path d="M 186 111.476562 L 224.542969 111.476562 L 224.542969 144 L 186 144 Z M 186 111.476562 "/></clipPath><clipPath id="cd47002649"><path d="M 208 132 L 224.542969 132 L 224.542969 201 L 208 201 Z M 208 132 "/></clipPath></defs><g id="66f34465ad"><rect x="0" width="375" y="0" height="374.999991" style="fill:#ffffff;fill-opacity:1;stroke:none;"/><rect x="0" width="375" y="0" height="374.999991" style="fill:#eeeeee;fill-opacity:1;stroke:none;"/><g clip-rule="nonzero" clip-path="url(#faf28a4d76)"><path style=" stroke:none;fill-rule:nonzero;fill:#2b4a59;fill-opacity:1;" d="M 145.789062 193.371094 L 179.929688 212.921875 L 179.984375 158.871094 L 145.789062 139.566406 Z M 181.027344 215.917969 C 180.839844 215.917969 180.652344 215.871094 180.480469 215.773438 L 144.144531 194.960938 C 143.800781 194.765625 143.589844 194.402344 143.589844 194.007812 L 143.589844 137.679688 C 143.589844 137.289062 143.800781 136.929688 144.136719 136.730469 C 144.472656 136.535156 144.890625 136.53125 145.230469 136.722656 L 181.625 157.273438 C 181.96875 157.46875 182.183594 157.835938 182.183594 158.230469 L 182.128906 214.820312 C 182.128906 215.210938 181.917969 215.574219 181.578125 215.769531 C 181.410156 215.867188 181.21875 215.917969 181.027344 215.917969 "/></g><path style=" stroke:none;fill-rule:nonzero;fill:#2b4a59;fill-opacity:1;" d="M 186.753906 160.039062 C 185.0625 160.039062 183.105469 159.792969 180.851562 159.304688 C 180.257812 159.175781 179.882812 158.59375 180.007812 158 C 180.136719 157.40625 180.722656 157.027344 181.316406 157.15625 C 186.324219 158.238281 189.652344 158.03125 191.496094 156.523438 C 192.878906 155.390625 193.578125 153.386719 193.628906 150.410156 L 158.445312 130.097656 C 157.921875 129.792969 157.742188 129.121094 158.046875 128.597656 C 158.347656 128.070312 159.019531 127.890625 159.546875 128.195312 L 195.28125 148.824219 C 195.617188 149.019531 195.824219 149.375 195.828125 149.761719 C 195.878906 153.796875 194.917969 156.566406 192.890625 158.222656 C 191.40625 159.4375 189.402344 160.039062 186.753906 160.039062 "/><path style=" stroke:none;fill-rule:nonzero;fill:#2b4a59;fill-opacity:1;" d="M 186.992188 216.667969 C 185.234375 216.667969 183.183594 216.410156 180.796875 215.890625 C 180.203125 215.765625 179.824219 215.179688 179.953125 214.585938 C 180.082031 213.992188 180.667969 213.617188 181.261719 213.742188 C 186.429688 214.859375 189.816406 214.6875 191.617188 213.21875 C 193.011719 212.078125 193.671875 209.96875 193.628906 206.773438 L 193.628906 149.777344 C 193.628906 149.167969 194.121094 148.675781 194.730469 148.675781 C 195.335938 148.675781 195.828125 149.167969 195.828125 149.777344 L 195.828125 206.757812 C 195.878906 210.65625 194.957031 213.332031 193.007812 214.921875 C 191.582031 216.089844 189.617188 216.667969 186.992188 216.667969 "/><path style=" stroke:none;fill-rule:nonzero;fill:#2b4a59;fill-opacity:1;" d="M 187.878906 154.894531 C 187.695312 154.894531 187.503906 154.847656 187.332031 154.75 L 154.074219 135.699219 C 153.546875 135.398438 153.367188 134.726562 153.667969 134.199219 C 153.96875 133.671875 154.640625 133.488281 155.167969 133.789062 L 188.425781 152.84375 C 188.953125 153.144531 189.136719 153.816406 188.835938 154.34375 C 188.628906 154.695312 188.261719 154.894531 187.878906 154.894531 "/><path style=" stroke:none;fill-rule:nonzero;fill:#2b4a59;fill-opacity:1;" d="M 201.058594 151.8125 C 199.367188 151.8125 197.410156 151.566406 195.160156 151.082031 C 194.566406 150.953125 194.1875 150.367188 194.316406 149.773438 C 194.445312 149.179688 195.03125 148.804688 195.625 148.929688 C 200.628906 150.011719 203.960938 149.804688 205.804688 148.296875 C 207.1875 147.167969 207.886719 145.164062 207.933594 142.1875 L 172.753906 121.875 C 172.226562 121.570312 172.046875 120.898438 172.351562 120.371094 C 172.65625 119.847656 173.328125 119.664062 173.851562 119.96875 L 209.585938 140.597656 C 209.921875 140.792969 210.128906 141.148438 210.136719 141.539062 C 210.1875 145.574219 209.222656 148.339844 207.195312 150 C 205.714844 151.210938 203.710938 151.8125 201.058594 151.8125 "/><path style=" stroke:none;fill-rule:nonzero;fill:#2b4a59;fill-opacity:1;" d="M 201.296875 208.441406 C 199.539062 208.441406 197.488281 208.183594 195.101562 207.667969 C 194.507812 207.539062 194.132812 206.953125 194.261719 206.359375 C 194.386719 205.765625 194.972656 205.390625 195.566406 205.519531 C 200.738281 206.636719 204.125 206.464844 205.921875 204.996094 C 207.316406 203.855469 207.976562 201.746094 207.9375 198.546875 L 207.9375 141.550781 C 207.9375 140.945312 208.429688 140.453125 209.035156 140.453125 C 209.644531 140.453125 210.136719 140.945312 210.136719 141.550781 L 210.136719 198.535156 C 210.183594 202.429688 209.261719 205.105469 207.3125 206.699219 C 205.886719 207.863281 203.921875 208.441406 201.296875 208.441406 "/><path style=" stroke:none;fill-rule:nonzero;fill:#2b4a59;fill-opacity:1;" d="M 202.1875 146.671875 C 202 146.671875 201.8125 146.625 201.640625 146.523438 L 168.382812 127.472656 C 167.855469 127.171875 167.671875 126.5 167.976562 125.972656 C 168.277344 125.445312 168.949219 125.261719 169.476562 125.566406 L 202.734375 144.617188 C 203.261719 144.917969 203.441406 145.589844 203.140625 146.117188 C 202.9375 146.472656 202.566406 146.671875 202.1875 146.671875 "/><g clip-rule="nonzero" clip-path="url(#5161ffdf19)"><path style=" stroke:none;fill-rule:nonzero;fill:#2b4a59;fill-opacity:1;" d="M 215.367188 143.621094 C 213.671875 143.621094 211.71875 143.375 209.464844 142.886719 C 208.871094 142.761719 208.496094 142.175781 208.621094 141.582031 C 208.75 140.988281 209.335938 140.613281 209.929688 140.738281 C 214.9375 141.820312 218.265625 141.613281 220.113281 140.105469 C 221.492188 138.972656 222.191406 136.972656 222.242188 133.996094 L 187.058594 113.679688 C 186.535156 113.378906 186.355469 112.707031 186.65625 112.179688 C 186.960938 111.65625 187.632812 111.472656 188.160156 111.777344 L 223.890625 132.40625 C 224.226562 132.601562 224.4375 132.957031 224.441406 133.347656 C 224.492188 137.382812 223.53125 140.148438 221.503906 141.808594 C 220.019531 143.019531 218.015625 143.621094 215.367188 143.621094 "/></g><g clip-rule="nonzero" clip-path="url(#cd47002649)"><path style=" stroke:none;fill-rule:nonzero;fill:#2b4a59;fill-opacity:1;" d="M 215.605469 200.25 C 213.847656 200.25 211.792969 199.992188 209.410156 199.476562 C 208.816406 199.347656 208.4375 198.765625 208.566406 198.171875 C 208.695312 197.574219 209.28125 197.199219 209.875 197.328125 C 215.042969 198.445312 218.429688 198.273438 220.226562 196.804688 C 221.625 195.664062 222.28125 193.554688 222.242188 190.355469 L 222.242188 133.359375 C 222.242188 132.753906 222.734375 132.261719 223.34375 132.261719 C 223.949219 132.261719 224.441406 132.753906 224.441406 133.359375 L 224.441406 190.34375 C 224.492188 194.238281 223.566406 196.914062 221.621094 198.507812 C 220.191406 199.671875 218.230469 200.25 215.605469 200.25 "/></g><path style=" stroke:none;fill-rule:nonzero;fill:#2b4a59;fill-opacity:1;" d="M 216.492188 138.480469 C 216.304688 138.480469 216.121094 138.433594 215.945312 138.332031 L 182.6875 119.28125 C 182.164062 118.980469 181.980469 118.308594 182.28125 117.78125 C 182.582031 117.253906 183.253906 117.074219 183.78125 117.375 L 217.039062 136.425781 C 217.566406 136.726562 217.75 137.398438 217.445312 137.925781 C 217.242188 138.28125 216.875 138.480469 216.492188 138.480469 "/><g style="fill:#2b4a59;fill-opacity:1;"><g transform="translate(89.713534, 241.332435)"><path style="stroke:none" d="M 11.953125 -3.53125 C 12.097656 -3.53125 12.226562 -3.472656 12.34375 -3.359375 L 13.453125 -2.15625 C 12.835938 -1.40625 12.085938 -0.828125 11.203125 -0.421875 C 10.316406 -0.0234375 9.253906 0.171875 8.015625 0.171875 C 6.898438 0.171875 5.898438 -0.015625 5.015625 -0.390625 C 4.128906 -0.773438 3.367188 -1.304688 2.734375 -1.984375 C 2.109375 -2.660156 1.628906 -3.46875 1.296875 -4.40625 C 0.960938 -5.34375 0.796875 -6.367188 0.796875 -7.484375 C 0.796875 -8.609375 0.972656 -9.640625 1.328125 -10.578125 C 1.691406 -11.515625 2.195312 -12.316406 2.84375 -12.984375 C 3.5 -13.660156 4.28125 -14.1875 5.1875 -14.5625 C 6.09375 -14.945312 7.09375 -15.140625 8.1875 -15.140625 C 9.28125 -15.140625 10.25 -14.957031 11.09375 -14.59375 C 11.9375 -14.238281 12.65625 -13.769531 13.25 -13.1875 L 12.3125 -11.890625 C 12.257812 -11.804688 12.191406 -11.734375 12.109375 -11.671875 C 12.023438 -11.609375 11.90625 -11.578125 11.75 -11.578125 C 11.644531 -11.578125 11.535156 -11.609375 11.421875 -11.671875 C 11.316406 -11.734375 11.195312 -11.804688 11.0625 -11.890625 C 10.9375 -11.972656 10.785156 -12.066406 10.609375 -12.171875 C 10.441406 -12.273438 10.242188 -12.367188 10.015625 -12.453125 C 9.785156 -12.546875 9.519531 -12.617188 9.21875 -12.671875 C 8.914062 -12.734375 8.566406 -12.765625 8.171875 -12.765625 C 7.503906 -12.765625 6.890625 -12.644531 6.328125 -12.40625 C 5.773438 -12.164062 5.300781 -11.816406 4.90625 -11.359375 C 4.507812 -10.910156 4.195312 -10.359375 3.96875 -9.703125 C 3.75 -9.054688 3.640625 -8.316406 3.640625 -7.484375 C 3.640625 -6.640625 3.757812 -5.890625 4 -5.234375 C 4.238281 -4.578125 4.5625 -4.023438 4.96875 -3.578125 C 5.375 -3.128906 5.851562 -2.785156 6.40625 -2.546875 C 6.957031 -2.304688 7.550781 -2.1875 8.1875 -2.1875 C 8.5625 -2.1875 8.898438 -2.207031 9.203125 -2.25 C 9.515625 -2.289062 9.800781 -2.359375 10.0625 -2.453125 C 10.320312 -2.546875 10.566406 -2.660156 10.796875 -2.796875 C 11.035156 -2.941406 11.265625 -3.117188 11.484375 -3.328125 C 11.554688 -3.390625 11.628906 -3.4375 11.703125 -3.46875 C 11.785156 -3.507812 11.867188 -3.53125 11.953125 -3.53125 Z M 11.953125 -3.53125 "/></g></g><g style="fill:#2b4a59;fill-opacity:1;"><g transform="translate(103.403413, 241.332435)"><path style="stroke:none" d="M 14.28125 -14.96875 L 14.28125 0 L 11.484375 0 L 11.484375 -6.546875 L 4.46875 -6.546875 L 4.46875 0 L 1.671875 0 L 1.671875 -14.96875 L 4.46875 -14.96875 L 4.46875 -8.53125 L 11.484375 -8.53125 L 11.484375 -14.96875 Z M 14.28125 -14.96875 "/></g></g><g style="fill:#2b4a59;fill-opacity:1;"><g transform="translate(119.349072, 241.332435)"><path style="stroke:none" d="M 4.46875 -12.75 L 4.46875 -8.609375 L 9.703125 -8.609375 L 9.703125 -6.453125 L 4.46875 -6.453125 L 4.46875 -2.21875 L 11.109375 -2.21875 L 11.109375 0 L 1.671875 0 L 1.671875 -14.96875 L 11.109375 -14.96875 L 11.109375 -12.75 Z M 4.46875 -12.75 "/></g></g><g style="fill:#2b4a59;fill-opacity:1;"><g transform="translate(131.248821, 241.332435)"><path style="stroke:none" d="M 11.953125 -3.53125 C 12.097656 -3.53125 12.226562 -3.472656 12.34375 -3.359375 L 13.453125 -2.15625 C 12.835938 -1.40625 12.085938 -0.828125 11.203125 -0.421875 C 10.316406 -0.0234375 9.253906 0.171875 8.015625 0.171875 C 6.898438 0.171875 5.898438 -0.015625 5.015625 -0.390625 C 4.128906 -0.773438 3.367188 -1.304688 2.734375 -1.984375 C 2.109375 -2.660156 1.628906 -3.46875 1.296875 -4.40625 C 0.960938 -5.34375 0.796875 -6.367188 0.796875 -7.484375 C 0.796875 -8.609375 0.972656 -9.640625 1.328125 -10.578125 C 1.691406 -11.515625 2.195312 -12.316406 2.84375 -12.984375 C 3.5 -13.660156 4.28125 -14.1875 5.1875 -14.5625 C 6.09375 -14.945312 7.09375 -15.140625 8.1875 -15.140625 C 9.28125 -15.140625 10.25 -14.957031 11.09375 -14.59375 C 11.9375 -14.238281 12.65625 -13.769531 13.25 -13.1875 L 12.3125 -11.890625 C 12.257812 -11.804688 12.191406 -11.734375 12.109375 -11.671875 C 12.023438 -11.609375 11.90625 -11.578125 11.75 -11.578125 C 11.644531 -11.578125 11.535156 -11.609375 11.421875 -11.671875 C 11.316406 -11.734375 11.195312 -11.804688 11.0625 -11.890625 C 10.9375 -11.972656 10.785156 -12.066406 10.609375 -12.171875 C 10.441406 -12.273438 10.242188 -12.367188 10.015625 -12.453125 C 9.785156 -12.546875 9.519531 -12.617188 9.21875 -12.671875 C 8.914062 -12.734375 8.566406 -12.765625 8.171875 -12.765625 C 7.503906 -12.765625 6.890625 -12.644531 6.328125 -12.40625 C 5.773438 -12.164062 5.300781 -11.816406 4.90625 -11.359375 C 4.507812 -10.910156 4.195312 -10.359375 3.96875 -9.703125 C 3.75 -9.054688 3.640625 -8.316406 3.640625 -7.484375 C 3.640625 -6.640625 3.757812 -5.890625 4 -5.234375 C 4.238281 -4.578125 4.5625 -4.023438 4.96875 -3.578125 C 5.375 -3.128906 5.851562 -2.785156 6.40625 -2.546875 C 6.957031 -2.304688 7.550781 -2.1875 8.1875 -2.1875 C 8.5625 -2.1875 8.898438 -2.207031 9.203125 -2.25 C 9.515625 -2.289062 9.800781 -2.359375 10.0625 -2.453125 C 10.320312 -2.546875 10.566406 -2.660156 10.796875 -2.796875 C 11.035156 -2.941406 11.265625 -3.117188 11.484375 -3.328125 C 11.554688 -3.390625 11.628906 -3.4375 11.703125 -3.46875 C 11.785156 -3.507812 11.867188 -3.53125 11.953125 -3.53125 Z M 11.953125 -3.53125 "/></g></g><g style="fill:#2b4a59;fill-opacity:1;"><g transform="translate(144.938701, 241.332435)"><path style="stroke:none" d="M 4.453125 -8.703125 L 5.109375 -8.703125 C 5.367188 -8.703125 5.582031 -8.734375 5.75 -8.796875 C 5.925781 -8.867188 6.078125 -8.988281 6.203125 -9.15625 L 10.328125 -14.375 C 10.503906 -14.59375 10.6875 -14.742188 10.875 -14.828125 C 11.0625 -14.921875 11.300781 -14.96875 11.59375 -14.96875 L 14 -14.96875 L 8.953125 -8.75 C 8.660156 -8.363281 8.351562 -8.09375 8.03125 -7.9375 C 8.257812 -7.851562 8.460938 -7.738281 8.640625 -7.59375 C 8.828125 -7.445312 9.003906 -7.253906 9.171875 -7.015625 L 14.375 0 L 11.921875 0 C 11.585938 0 11.335938 -0.046875 11.171875 -0.140625 C 11.015625 -0.234375 10.878906 -0.367188 10.765625 -0.546875 L 6.53125 -6.078125 C 6.394531 -6.265625 6.238281 -6.394531 6.0625 -6.46875 C 5.894531 -6.539062 5.648438 -6.578125 5.328125 -6.578125 L 4.453125 -6.578125 L 4.453125 0 L 1.671875 0 L 1.671875 -14.96875 L 4.453125 -14.96875 Z M 4.453125 -8.703125 "/></g></g><g style="fill:#2b4a59;fill-opacity:1;"><g transform="translate(159.125266, 241.332435)"><path style="stroke:none" d=""/></g></g><g style="fill:#2b4a59;fill-opacity:1;"><g transform="translate(164.1542, 241.332435)"><path style="stroke:none" d="M 15.9375 -7.484375 C 15.9375 -6.390625 15.753906 -5.375 15.390625 -4.4375 C 15.035156 -3.5 14.523438 -2.6875 13.859375 -2 C 13.191406 -1.320312 12.394531 -0.789062 11.46875 -0.40625 C 10.539062 -0.0195312 9.503906 0.171875 8.359375 0.171875 C 7.234375 0.171875 6.203125 -0.0195312 5.265625 -0.40625 C 4.335938 -0.789062 3.539062 -1.320312 2.875 -2 C 2.207031 -2.6875 1.691406 -3.5 1.328125 -4.4375 C 0.960938 -5.375 0.78125 -6.390625 0.78125 -7.484375 C 0.78125 -8.578125 0.960938 -9.59375 1.328125 -10.53125 C 1.691406 -11.46875 2.207031 -12.273438 2.875 -12.953125 C 3.539062 -13.640625 4.335938 -14.175781 5.265625 -14.5625 C 6.203125 -14.945312 7.234375 -15.140625 8.359375 -15.140625 C 9.117188 -15.140625 9.832031 -15.050781 10.5 -14.875 C 11.175781 -14.695312 11.789062 -14.445312 12.34375 -14.125 C 12.90625 -13.800781 13.40625 -13.410156 13.84375 -12.953125 C 14.289062 -12.492188 14.671875 -11.976562 14.984375 -11.40625 C 15.296875 -10.84375 15.53125 -10.226562 15.6875 -9.5625 C 15.851562 -8.90625 15.9375 -8.210938 15.9375 -7.484375 Z M 13.09375 -7.484375 C 13.09375 -8.304688 12.984375 -9.039062 12.765625 -9.6875 C 12.546875 -10.34375 12.226562 -10.894531 11.8125 -11.34375 C 11.40625 -11.800781 10.910156 -12.148438 10.328125 -12.390625 C 9.753906 -12.640625 9.097656 -12.765625 8.359375 -12.765625 C 7.628906 -12.765625 6.972656 -12.640625 6.390625 -12.390625 C 5.804688 -12.148438 5.304688 -11.800781 4.890625 -11.34375 C 4.484375 -10.894531 4.171875 -10.34375 3.953125 -9.6875 C 3.734375 -9.039062 3.625 -8.304688 3.625 -7.484375 C 3.625 -6.660156 3.734375 -5.921875 3.953125 -5.265625 C 4.171875 -4.617188 4.484375 -4.066406 4.890625 -3.609375 C 5.304688 -3.160156 5.804688 -2.816406 6.390625 -2.578125 C 6.972656 -2.335938 7.628906 -2.21875 8.359375 -2.21875 C 9.097656 -2.21875 9.753906 -2.335938 10.328125 -2.578125 C 10.910156 -2.816406 11.40625 -3.160156 11.8125 -3.609375 C 12.226562 -4.066406 12.546875 -4.617188 12.765625 -5.265625 C 12.984375 -5.921875 13.09375 -6.660156 13.09375 -7.484375 Z M 13.09375 -7.484375 "/></g></g><g style="fill:#2b4a59;fill-opacity:1;"><g transform="translate(180.875928, 241.332435)"><path style="stroke:none" d="M 21.578125 -14.96875 L 16.9375 0 L 14.421875 0 L 11.15625 -10.234375 C 11.0625 -10.472656 10.976562 -10.773438 10.90625 -11.140625 C 10.863281 -10.960938 10.820312 -10.796875 10.78125 -10.640625 C 10.738281 -10.492188 10.691406 -10.359375 10.640625 -10.234375 L 7.34375 0 L 4.8125 0 L 0.171875 -14.96875 L 2.5 -14.96875 C 2.75 -14.96875 2.953125 -14.910156 3.109375 -14.796875 C 3.273438 -14.679688 3.382812 -14.53125 3.4375 -14.34375 L 5.984375 -5.390625 C 6.035156 -5.160156 6.085938 -4.914062 6.140625 -4.65625 C 6.191406 -4.40625 6.242188 -4.132812 6.296875 -3.84375 C 6.359375 -4.132812 6.421875 -4.40625 6.484375 -4.65625 C 6.546875 -4.914062 6.617188 -5.160156 6.703125 -5.390625 L 9.640625 -14.34375 C 9.691406 -14.5 9.796875 -14.640625 9.953125 -14.765625 C 10.117188 -14.898438 10.320312 -14.96875 10.5625 -14.96875 L 11.375 -14.96875 C 11.613281 -14.96875 11.804688 -14.90625 11.953125 -14.78125 C 12.109375 -14.664062 12.226562 -14.519531 12.3125 -14.34375 L 15.234375 -5.390625 C 15.378906 -4.953125 15.507812 -4.457031 15.625 -3.90625 C 15.71875 -4.445312 15.820312 -4.941406 15.9375 -5.390625 L 18.484375 -14.34375 C 18.523438 -14.507812 18.628906 -14.65625 18.796875 -14.78125 C 18.960938 -14.90625 19.164062 -14.96875 19.40625 -14.96875 Z M 21.578125 -14.96875 "/></g></g><g style="fill:#2b4a59;fill-opacity:1;"><g transform="translate(202.62659, 241.332435)"><path style="stroke:none" d="M 14.28125 -14.96875 L 14.28125 0 L 12.859375 0 C 12.640625 0 12.453125 -0.0351562 12.296875 -0.109375 C 12.148438 -0.179688 12.007812 -0.300781 11.875 -0.46875 L 4.0625 -10.453125 C 4.101562 -9.992188 4.125 -9.570312 4.125 -9.1875 L 4.125 0 L 1.671875 0 L 1.671875 -14.96875 L 3.125 -14.96875 C 3.238281 -14.96875 3.335938 -14.960938 3.421875 -14.953125 C 3.515625 -14.941406 3.59375 -14.921875 3.65625 -14.890625 C 3.71875 -14.859375 3.78125 -14.8125 3.84375 -14.75 C 3.90625 -14.695312 3.976562 -14.617188 4.0625 -14.515625 L 11.90625 -4.5 C 11.882812 -4.738281 11.863281 -4.972656 11.84375 -5.203125 C 11.832031 -5.441406 11.828125 -5.664062 11.828125 -5.875 L 11.828125 -14.96875 Z M 14.28125 -14.96875 "/></g></g><g style="fill:#2b4a59;fill-opacity:1;"><g transform="translate(218.572249, 241.332435)"><path style="stroke:none" d=""/></g></g><g style="fill:#2b4a59;fill-opacity:1;"><g transform="translate(223.601183, 241.332435)"><path style="stroke:none" d="M 9.640625 -12.25 C 9.554688 -12.101562 9.46875 -11.992188 9.375 -11.921875 C 9.28125 -11.859375 9.164062 -11.828125 9.03125 -11.828125 C 8.882812 -11.828125 8.722656 -11.878906 8.546875 -11.984375 C 8.378906 -12.097656 8.175781 -12.21875 7.9375 -12.34375 C 7.707031 -12.476562 7.4375 -12.597656 7.125 -12.703125 C 6.8125 -12.804688 6.441406 -12.859375 6.015625 -12.859375 C 5.628906 -12.859375 5.289062 -12.8125 5 -12.71875 C 4.707031 -12.632812 4.460938 -12.507812 4.265625 -12.34375 C 4.066406 -12.175781 3.921875 -11.972656 3.828125 -11.734375 C 3.734375 -11.503906 3.6875 -11.253906 3.6875 -10.984375 C 3.6875 -10.628906 3.785156 -10.332031 3.984375 -10.09375 C 4.179688 -9.863281 4.441406 -9.664062 4.765625 -9.5 C 5.085938 -9.332031 5.453125 -9.179688 5.859375 -9.046875 C 6.273438 -8.921875 6.703125 -8.785156 7.140625 -8.640625 C 7.578125 -8.492188 8 -8.320312 8.40625 -8.125 C 8.820312 -7.925781 9.191406 -7.675781 9.515625 -7.375 C 9.847656 -7.070312 10.109375 -6.703125 10.296875 -6.265625 C 10.492188 -5.835938 10.59375 -5.3125 10.59375 -4.6875 C 10.59375 -4.007812 10.476562 -3.375 10.25 -2.78125 C 10.019531 -2.195312 9.679688 -1.6875 9.234375 -1.25 C 8.796875 -0.8125 8.253906 -0.460938 7.609375 -0.203125 C 6.960938 0.046875 6.226562 0.171875 5.40625 0.171875 C 4.925781 0.171875 4.453125 0.125 3.984375 0.03125 C 3.523438 -0.0625 3.082031 -0.191406 2.65625 -0.359375 C 2.238281 -0.535156 1.84375 -0.742188 1.46875 -0.984375 C 1.09375 -1.234375 0.757812 -1.503906 0.46875 -1.796875 L 1.296875 -3.140625 C 1.359375 -3.234375 1.445312 -3.3125 1.5625 -3.375 C 1.675781 -3.445312 1.796875 -3.484375 1.921875 -3.484375 C 2.085938 -3.484375 2.269531 -3.410156 2.46875 -3.265625 C 2.675781 -3.117188 2.914062 -2.957031 3.1875 -2.78125 C 3.46875 -2.613281 3.789062 -2.457031 4.15625 -2.3125 C 4.519531 -2.175781 4.960938 -2.109375 5.484375 -2.109375 C 6.273438 -2.109375 6.890625 -2.296875 7.328125 -2.671875 C 7.765625 -3.046875 7.984375 -3.585938 7.984375 -4.296875 C 7.984375 -4.691406 7.882812 -5.007812 7.6875 -5.25 C 7.488281 -5.5 7.226562 -5.707031 6.90625 -5.875 C 6.582031 -6.050781 6.210938 -6.195312 5.796875 -6.3125 C 5.378906 -6.425781 4.957031 -6.550781 4.53125 -6.6875 C 4.101562 -6.832031 3.679688 -7 3.265625 -7.1875 C 2.859375 -7.382812 2.488281 -7.640625 2.15625 -7.953125 C 1.832031 -8.265625 1.570312 -8.648438 1.375 -9.109375 C 1.1875 -9.578125 1.09375 -10.15625 1.09375 -10.84375 C 1.09375 -11.382812 1.195312 -11.910156 1.40625 -12.421875 C 1.625 -12.941406 1.941406 -13.398438 2.359375 -13.796875 C 2.773438 -14.203125 3.285156 -14.523438 3.890625 -14.765625 C 4.492188 -15.015625 5.191406 -15.140625 5.984375 -15.140625 C 6.867188 -15.140625 7.679688 -15 8.421875 -14.71875 C 9.171875 -14.445312 9.804688 -14.0625 10.328125 -13.5625 Z M 9.640625 -12.25 "/></g></g><g style="fill:#2b4a59;fill-opacity:1;"><g transform="translate(234.952508, 241.332435)"><path style="stroke:none" d="M 14.28125 -14.96875 L 14.28125 0 L 11.484375 0 L 11.484375 -6.546875 L 4.46875 -6.546875 L 4.46875 0 L 1.671875 0 L 1.671875 -14.96875 L 4.46875 -14.96875 L 4.46875 -8.53125 L 11.484375 -8.53125 L 11.484375 -14.96875 Z M 14.28125 -14.96875 "/></g></g><g style="fill:#2b4a59;fill-opacity:1;"><g transform="translate(250.898167, 241.332435)"><path style="stroke:none" d="M 4.46875 -12.75 L 4.46875 -8.609375 L 9.703125 -8.609375 L 9.703125 -6.453125 L 4.46875 -6.453125 L 4.46875 -2.21875 L 11.109375 -2.21875 L 11.109375 0 L 1.671875 0 L 1.671875 -14.96875 L 11.109375 -14.96875 L 11.109375 -12.75 Z M 4.46875 -12.75 "/></g></g><g style="fill:#2b4a59;fill-opacity:1;"><g transform="translate(262.797916, 241.332435)"><path style="stroke:none" d="M 10.4375 -2.296875 L 10.4375 0 L 1.671875 0 L 1.671875 -14.96875 L 4.453125 -14.96875 L 4.453125 -2.296875 Z M 10.4375 -2.296875 "/></g></g><g style="fill:#2b4a59;fill-opacity:1;"><g transform="translate(273.549079, 241.332435)"><path style="stroke:none" d="M 4.46875 -12.75 L 4.46875 -8.328125 L 10.078125 -8.328125 L 10.078125 -6.09375 L 4.46875 -6.09375 L 4.46875 0 L 1.671875 0 L 1.671875 -14.96875 L 11.109375 -14.96875 L 11.109375 -12.75 Z M 4.46875 -12.75 "/></g></g></g></svg>