<svg xmlns="http://www.w3.org/2000/svg" version="1.2" viewBox="0 100 375 100"><defs><clipPath id="a"><path d="M37.5 138H69v63H37.5Zm0 0"/></clipPath><clipPath id="b"><path d="M66 147h13v54.566H66Zm0 0"/></clipPath><clipPath id="c"><path d="M71 118.316h31V144H71Zm0 0"/></clipPath></defs><g clip-path="url(#a)"><path d="m39.277 183.129 27.02 15.473.043-42.778-27.063-15.277Zm27.887 17.844a.847.847 0 0 1-.43-.118l-28.757-16.468a.863.863 0 0 1-.438-.754v-44.578a.87.87 0 0 1 1.297-.758l28.8 16.262a.867.867 0 0 1 .442.761l-.043 44.782a.868.868 0 0 1-.87.87" style="stroke:none;fill-rule:nonzero;fill:#2b4a59;fill-opacity:1"/></g><path d="M71.695 156.746c-1.34 0-2.886-.191-4.668-.578a.87.87 0 1 1 .368-1.7c3.96.856 6.597.692 8.058-.503 1.094-.895 1.645-2.48 1.684-4.836l-27.84-16.074a.867.867 0 0 1-.32-1.188.866.866 0 0 1 1.187-.32l28.281 16.328c.266.152.43.434.434.742.039 3.192-.723 5.383-2.324 6.696-1.176.96-2.762 1.433-4.86 1.433" style="stroke:none;fill-rule:nonzero;fill:#2b4a59;fill-opacity:1"/><g clip-path="url(#b)"><path d="M71.883 201.566c-1.387 0-3.012-.207-4.903-.613a.87.87 0 0 1 .368-1.703c4.093.887 6.773.75 8.195-.414 1.105-.902 1.629-2.57 1.598-5.102V148.63a.869.869 0 1 1 1.738 0v45.094c.039 3.082-.692 5.203-2.234 6.46-1.13.922-2.684 1.383-4.762 1.383" style="stroke:none;fill-rule:nonzero;fill:#2b4a59;fill-opacity:1"/></g><path d="M72.586 152.68a.868.868 0 0 1-.43-.118l-26.32-15.078a.87.87 0 0 1-.324-1.187.874.874 0 0 1 1.187-.32l26.32 15.078a.87.87 0 0 1-.433 1.625M83.02 150.238c-1.34 0-2.887-.195-4.672-.578a.876.876 0 0 1-.668-1.035.875.875 0 0 1 1.035-.668c3.965.856 6.597.691 8.058-.5 1.094-.894 1.649-2.48 1.688-4.836l-27.844-16.078a.864.864 0 0 1-.316-1.188.867.867 0 0 1 1.187-.316l28.278 16.324c.265.157.43.438.437.742.04 3.196-.723 5.387-2.328 6.7-1.172.957-2.758 1.433-4.855 1.433" style="stroke:none;fill-rule:nonzero;fill:#2b4a59;fill-opacity:1"/><path d="M83.207 195.055c-1.39 0-3.016-.203-4.902-.614a.87.87 0 1 1 .367-1.699c4.094.883 6.773.75 8.195-.414 1.106-.902 1.625-2.574 1.594-5.105v-45.106a.872.872 0 0 1 1.742 0v45.098c.035 3.082-.695 5.2-2.234 6.46-1.13.923-2.684 1.38-4.762 1.38M83.91 146.168a.867.867 0 0 1-.433-.113l-26.32-15.078a.872.872 0 0 1-.321-1.188.865.865 0 0 1 1.187-.32l26.32 15.074a.87.87 0 0 1-.433 1.625" style="stroke:none;fill-rule:nonzero;fill:#2b4a59;fill-opacity:1"/><g clip-path="url(#c)"><path d="M94.34 143.754c-1.34 0-2.887-.191-4.668-.578a.87.87 0 1 1 .367-1.7c3.961.856 6.598.692 8.059-.503 1.093-.895 1.644-2.477 1.683-4.836l-27.844-16.075a.87.87 0 0 1 .871-1.508l28.282 16.329c.265.152.43.433.433.742.04 3.191-.722 5.383-2.328 6.695-1.172.961-2.757 1.434-4.855 1.434" style="stroke:none;fill-rule:nonzero;fill:#2b4a59;fill-opacity:1"/></g><path d="M94.527 188.574c-1.39 0-3.011-.207-4.902-.613a.87.87 0 0 1 .367-1.703c4.094.887 6.774.75 8.195-.414 1.106-.903 1.626-2.57 1.594-5.102v-45.105a.872.872 0 0 1 1.742 0v45.093c.04 3.086-.691 5.204-2.234 6.461-1.129.922-2.684 1.383-4.762 1.383M95.23 139.688a.868.868 0 0 1-.43-.118l-26.32-15.074a.87.87 0 0 1 .864-1.512l26.32 15.079a.87.87 0 0 1-.434 1.625" style="stroke:none;fill-rule:nonzero;fill:#2b4a59;fill-opacity:1"/><g style="fill:#2b4a59;fill-opacity:1"><path d="M13.078-3.86a.66.66 0 0 1 .453.188l1.188 1.297a6.583 6.583 0 0 1-2.453 1.906c-.97.438-2.133.656-3.485.656-1.219 0-2.32-.207-3.297-.625A7.196 7.196 0 0 1 3-2.171c-.688-.738-1.215-1.625-1.578-2.656C1.055-5.86.875-6.984.875-8.203c0-1.227.191-2.352.578-3.375a7.872 7.872 0 0 1 1.656-2.64 7.37 7.37 0 0 1 2.563-1.735c1-.414 2.098-.625 3.297-.625 1.187 0 2.242.2 3.172.594.925.398 1.718.914 2.375 1.546l-1.032 1.407a.788.788 0 0 1-.234.25.705.705 0 0 1-.39.094.773.773 0 0 1-.344-.094 4.228 4.228 0 0 1-.407-.235 10.303 10.303 0 0 0-.5-.312 3.956 3.956 0 0 0-.656-.313 4.906 4.906 0 0 0-.86-.234 5.57 5.57 0 0 0-1.14-.11c-.73 0-1.402.137-2.015.407a4.334 4.334 0 0 0-1.563 1.14c-.438.493-.781 1.094-1.031 1.813-.242.71-.36 1.516-.36 2.422 0 .93.13 1.75.391 2.469.258.718.613 1.324 1.063 1.812.445.492.972.867 1.578 1.125.601.262 1.254.39 1.953.39.414 0 .789-.019 1.125-.062.332-.05.64-.125.922-.219.289-.093.562-.218.812-.374.25-.157.5-.348.75-.579.082-.062.164-.113.25-.156a.577.577 0 0 1 .25-.062Zm0 0" style="stroke:none" transform="translate(116.207 170.468)"/></g><g style="fill:#2b4a59;fill-opacity:1"><path d="M15.64-16.39V0h-3.062v-7.172H4.891V0H1.828v-16.39h3.063v7.046h7.687v-7.047Zm0 0" style="stroke:none" transform="translate(131.206 170.468)"/></g><g style="fill:#2b4a59;fill-opacity:1"><path d="M4.89-13.969v4.547h5.735v2.344H4.891v4.64h7.265V0H1.828v-16.39h10.328v2.421Zm0 0" style="stroke:none" transform="translate(148.676 170.468)"/></g><g style="fill:#2b4a59;fill-opacity:1"><path d="M13.078-3.86a.66.66 0 0 1 .453.188l1.188 1.297a6.583 6.583 0 0 1-2.453 1.906c-.97.438-2.133.656-3.485.656-1.219 0-2.32-.207-3.297-.625A7.196 7.196 0 0 1 3-2.171c-.688-.738-1.215-1.625-1.578-2.656C1.055-5.86.875-6.984.875-8.203c0-1.227.191-2.352.578-3.375a7.872 7.872 0 0 1 1.656-2.64 7.37 7.37 0 0 1 2.563-1.735c1-.414 2.098-.625 3.297-.625 1.187 0 2.242.2 3.172.594.925.398 1.718.914 2.375 1.546l-1.032 1.407a.788.788 0 0 1-.234.25.705.705 0 0 1-.39.094.773.773 0 0 1-.344-.094 4.228 4.228 0 0 1-.407-.235 10.303 10.303 0 0 0-.5-.312 3.956 3.956 0 0 0-.656-.313 4.906 4.906 0 0 0-.86-.234 5.57 5.57 0 0 0-1.14-.11c-.73 0-1.402.137-2.015.407a4.334 4.334 0 0 0-1.563 1.14c-.438.493-.781 1.094-1.031 1.813-.242.71-.36 1.516-.36 2.422 0 .93.13 1.75.391 2.469.258.718.613 1.324 1.063 1.812.445.492.972.867 1.578 1.125.601.262 1.254.39 1.953.39.414 0 .789-.019 1.125-.062.332-.05.64-.125.922-.219.289-.093.562-.218.812-.374.25-.157.5-.348.75-.579.082-.062.164-.113.25-.156a.577.577 0 0 1 .25-.062Zm0 0" style="stroke:none" transform="translate(161.714 170.468)"/></g><g style="fill:#2b4a59;fill-opacity:1"><path d="M4.875-9.516h.719c.281 0 .515-.039.703-.125.195-.082.363-.207.5-.375l4.516-5.734c.187-.238.382-.406.593-.5.207-.094.473-.14.797-.14h2.625L9.813-9.579c-.336.418-.672.715-1.016.89.25.086.473.211.672.376.195.156.39.37.578.64L15.734 0h-2.687c-.367 0-.637-.05-.813-.156a1.204 1.204 0 0 1-.437-.438l-4.64-6.062a1.329 1.329 0 0 0-.5-.422c-.188-.082-.462-.125-.813-.125h-.969V0H1.828v-16.39h3.047Zm0 0" style="stroke:none" transform="translate(176.713 170.468)"/></g><g style="fill:#2b4a59;fill-opacity:1"><path d="M17.453-8.203c0 1.21-.2 2.324-.594 3.344a7.871 7.871 0 0 1-1.687 2.656 7.65 7.65 0 0 1-2.61 1.765c-1.023.418-2.156.625-3.406.625-1.242 0-2.37-.207-3.39-.625A7.754 7.754 0 0 1 3.14-2.202 7.97 7.97 0 0 1 1.437-4.86C1.04-5.88.845-6.992.845-8.203c0-1.195.195-2.305.594-3.328a8.009 8.009 0 0 1 1.703-2.656 7.605 7.605 0 0 1 2.625-1.75c1.02-.426 2.148-.641 3.39-.641.832 0 1.614.101 2.344.297a7.793 7.793 0 0 1 3.672 2.094c.488.5.898 1.062 1.234 1.687.344.617.602 1.29.782 2.016.175.73.265 1.492.265 2.28Zm-3.11 0c0-.895-.124-1.695-.374-2.406-.242-.72-.586-1.329-1.031-1.829-.438-.5-.981-.878-1.626-1.14-.636-.27-1.355-.406-2.156-.406-.804 0-1.523.136-2.156.406a4.519 4.519 0 0 0-1.64 1.14c-.45.5-.794 1.11-1.032 1.829-.242.71-.36 1.511-.36 2.406 0 .906.118 1.719.36 2.437A5.09 5.09 0 0 0 5.36-3.953 4.717 4.717 0 0 0 7-2.813c.633.262 1.352.391 2.156.391.801 0 1.52-.129 2.156-.39a4.418 4.418 0 0 0 1.626-1.141 5.21 5.21 0 0 0 1.03-1.813c.25-.718.376-1.53.376-2.437Zm0 0" style="stroke:none" transform="translate(197.766 170.468)"/></g><g style="fill:#2b4a59;fill-opacity:1"><path d="M23.64-16.39 18.548 0h-2.75l-3.594-11.203a7.98 7.98 0 0 1-.265-1c-.043.2-.09.383-.141.547-.043.156-.09.308-.14.453L8.03 0H5.266L.187-16.39H2.75c.258 0 .477.062.656.187a.93.93 0 0 1 .36.5l2.78 9.812c.063.243.118.5.173.782.062.28.125.578.187.89.063-.312.125-.61.188-.89.07-.282.148-.54.234-.782l3.219-9.812c.062-.164.18-.32.36-.469a1 1 0 0 1 .655-.219h.891c.27 0 .488.07.656.203.164.125.29.29.375.485l3.204 9.812c.156.47.296 1.008.421 1.61.102-.594.22-1.13.344-1.61l2.781-9.812c.04-.188.157-.348.344-.485.188-.132.41-.203.672-.203Zm0 0" style="stroke:none" transform="translate(216.086 170.468)"/></g><g style="fill:#2b4a59;fill-opacity:1"><path d="M15.64-16.39V0h-1.562c-.242 0-.445-.035-.61-.11A1.613 1.613 0 0 1 13-.515L4.437-11.453c.051.5.079.965.079 1.39V0H1.828v-16.39h1.594c.125 0 .234.007.328.015.102.012.188.04.25.078a.68.68 0 0 1 .203.14c.07.063.149.15.234.25l8.594 10.97c-.023-.258-.043-.516-.062-.766-.012-.258-.016-.5-.016-.719v-9.969Zm0 0" style="stroke:none" transform="translate(239.917 170.468)"/></g><g style="fill:#2b4a59;fill-opacity:1"><path d="M10.547-13.406a.992.992 0 0 1-.281.344.634.634 0 0 1-.375.109 1 1 0 0 1-.532-.172 6.477 6.477 0 0 0-.656-.39 4.963 4.963 0 0 0-.906-.391 3.521 3.521 0 0 0-1.203-.188c-.43 0-.805.055-1.125.156-.313.106-.578.25-.797.438-.211.18-.371.39-.484.64-.106.25-.157.528-.157.829 0 .386.11.71.328.969a2.6 2.6 0 0 0 .86.656c.351.18.754.34 1.203.484.457.149.922.305 1.39.469.477.156.942.344 1.391.562.457.22.863.496 1.219.829.363.324.648.726.86 1.203.218.468.327 1.043.327 1.718 0 .743-.132 1.438-.39 2.094a4.686 4.686 0 0 1-1.11 1.688C9.63-.88 9.035-.5 8.33-.22c-.7.27-1.5.406-2.407.406-.524 0-1.04-.054-1.547-.156a8.29 8.29 0 0 1-1.469-.437c-.46-.188-.89-.41-1.297-.672a6.876 6.876 0 0 1-1.093-.89l.906-1.47a.967.967 0 0 1 .281-.265.787.787 0 0 1 .39-.11c.188 0 .391.079.61.235.219.156.477.328.781.515.301.188.657.36 1.063.516.406.156.894.235 1.469.235.863 0 1.53-.204 2-.61.476-.414.718-1.008.718-1.781 0-.426-.109-.774-.328-1.047a2.386 2.386 0 0 0-.844-.688 6.003 6.003 0 0 0-1.218-.468c-.45-.133-.907-.274-1.375-.422a13.498 13.498 0 0 1-1.39-.547 4.71 4.71 0 0 1-1.204-.828 3.866 3.866 0 0 1-.86-1.281c-.218-.508-.327-1.141-.327-1.891 0-.594.117-1.172.359-1.734a4.543 4.543 0 0 1 1.031-1.516c.457-.438 1.02-.785 1.688-1.047.664-.27 1.425-.406 2.28-.406.97 0 1.86.152 2.673.453.82.305 1.52.73 2.094 1.281Zm0 0" style="stroke:none" transform="translate(262.897 170.468)"/></g><g style="fill:#2b4a59;fill-opacity:1"><path d="M15.64-16.39V0h-3.062v-7.172H4.891V0H1.828v-16.39h3.063v7.046h7.687v-7.047Zm0 0" style="stroke:none" transform="translate(275.333 170.468)"/></g><g style="fill:#2b4a59;fill-opacity:1"><path d="M4.89-13.969v4.547h5.735v2.344H4.891v4.64h7.265V0H1.828v-16.39h10.328v2.421Zm0 0" style="stroke:none" transform="translate(292.804 170.468)"/></g><g style="fill:#2b4a59;fill-opacity:1"><path d="M11.422-2.516V0H1.828v-16.39h3.047v13.874Zm0 0" style="stroke:none" transform="translate(305.841 170.468)"/></g><g style="fill:#2b4a59;fill-opacity:1"><path d="M4.89-13.969v4.86h6.141v2.437h-6.14V0H1.828v-16.39h10.328v2.421Zm0 0" style="stroke:none" transform="translate(317.62 170.468)"/></g></svg>